<svg width="10" height="17" viewBox="0 0 10 17" fill="none" xmlns="http://www.w3.org/2000/svg">
<path d="M4.68032 2.88879C5.57882 2.88879 6.30952 3.64309 6.30952 4.57061C6.30952 5.49533 5.57882 6.24963 4.68032 6.24963C3.78183 6.24963 3.05113 5.49533 3.05113 4.57061C3.05113 3.64309 3.78183 2.88879 4.68032 2.88879ZM4.68032 8.62987C6.85078 8.62987 8.61529 6.80837 8.61529 4.57061C8.61529 2.33005 6.85078 0.508545 4.68032 0.508545C2.50987 0.508545 0.748059 2.33005 0.748059 4.57061C0.748059 6.80837 2.50987 8.62987 4.68032 8.62987ZM6.27163 11.9432C7.0727 11.7532 7.844 11.4264 8.55576 10.9654C9.09431 10.6162 9.25669 9.88146 8.9184 9.32551C8.57741 8.76676 7.86835 8.59914 7.32709 8.95115C5.71684 9.996 3.64381 9.996 2.03085 8.95115C1.49229 8.59914 0.780535 8.76676 0.442247 9.32551C0.103958 9.88146 0.266336 10.6162 0.804892 10.9654C1.51665 11.4264 2.28795 11.7532 3.08902 11.9432L0.888787 14.2117C0.43954 14.6755 0.43954 15.4298 0.888787 15.8935C1.11612 16.1254 1.4084 16.2427 1.70339 16.2427C1.99837 16.2427 2.29336 16.1254 2.52069 15.8935L4.68032 13.6641L6.84266 15.8935C7.29191 16.3601 8.01991 16.3601 8.47186 15.8935C8.92111 15.4298 8.92111 14.6755 8.47186 14.2117L6.27163 11.9432Z" fill="#030A1A"/>
</svg>
